# xmcd CD database file generated by Grip 2.95
# 
# Track frame offsets:
#       150
#       2737
#       20855
#       43180
#       64780
#       71842
#       92992
#       117112
#       133072
#       149597
#       165675
#       184197
#       202759
#       216862
#       234670
#       253755
# 
# Disc length: 3732 seconds
# 
# Revision: 3
# Processed by: cddbd v1.4b41PL1 Copyright (c) Steve Scherf et al.
# Submitted via: Grip 2.95
# 
DISCID=f50e9210
DTITLE=Chris Smither - Live As I'll Ever Be
DYEAR=1900
DGENRE=
TTITLE0=Intro
TTITLE1=Hold On I
TTITLE2=The Devil's Real
TTITLE3=Link of Chain
TTITLE4=No Love Today Intro
TTITLE5=No Love Today
TTITLE6=Cave Man
TTITLE7=Winsome Smile
TTITLE8=Slow Surprise
TTITLE9=Help Me Now
TTITLE10=Small Revelations
TTITLE11=Can't Shake These Blues
TTITLE12=Dust My Broom
TTITLE13=I Am The Ride
TTITLE14=Up On The Lowdown
TTITLE15=Killin' The Blues
EXTD=
EXTT0=
EXTT1=
EXTT2=
EXTT3=
EXTT4=
EXTT5=
EXTT6=
EXTT7=
EXTT8=
EXTT9=
EXTT10=
EXTT11=
EXTT12=
EXTT13=
EXTT14=
EXTT15=
PLAYORDER=
